<mxfile host="app.diagrams.net" modified="2022-09-04T10:44:59.670Z" agent="5.0 (Windows NT 10.0; Win64; x64) AppleWebKit/537.36 (KHTML, like Gecko) Chrome/105.0.0.0 Safari/537.36" etag="TFLJrHKENORFidZALf5k" version="20.2.8" type="github">
  <diagram name="Page-1" id="e7e014a7-5840-1c2e-5031-d8a46d1fe8dd">
    <mxGraphModel dx="782" dy="428" grid="1" gridSize="10" guides="1" tooltips="1" connect="1" arrows="1" fold="1" page="1" pageScale="1" pageWidth="1169" pageHeight="826" background="none" math="0" shadow="0">
      <root>
        <mxCell id="0" />
        <mxCell id="1" parent="0" />
        <mxCell id="2" value="Thread 1" style="swimlane;whiteSpace=wrap" parent="1" vertex="1">
          <mxGeometry x="164.5" y="128" width="280" height="662" as="geometry" />
        </mxCell>
        <mxCell id="FRBaiip9Qxw7M4mhhmUO-46" value="Log In" style="ellipse;whiteSpace=wrap;html=1;" vertex="1" parent="2">
          <mxGeometry x="45" y="82" width="140" height="70" as="geometry" />
        </mxCell>
        <mxCell id="FRBaiip9Qxw7M4mhhmUO-47" value="" style="ellipse;html=1;shape=startState;fillColor=#000000;strokeColor=#ff0000;" vertex="1" parent="2">
          <mxGeometry x="100" y="22" width="30" height="30" as="geometry" />
        </mxCell>
        <mxCell id="FRBaiip9Qxw7M4mhhmUO-48" value="" style="edgeStyle=orthogonalEdgeStyle;html=1;verticalAlign=bottom;endArrow=open;endSize=8;strokeColor=#ff0000;rounded=0;" edge="1" source="FRBaiip9Qxw7M4mhhmUO-47" parent="2">
          <mxGeometry relative="1" as="geometry">
            <mxPoint x="115.5" y="82" as="targetPoint" />
          </mxGeometry>
        </mxCell>
        <mxCell id="FRBaiip9Qxw7M4mhhmUO-51" value="Restaurant Exists?" style="html=1;whiteSpace=wrap;aspect=fixed;shape=isoRectangle;" vertex="1" parent="2">
          <mxGeometry x="45.5" y="350" width="150" height="90" as="geometry" />
        </mxCell>
        <mxCell id="FRBaiip9Qxw7M4mhhmUO-50" value="" style="edgeStyle=orthogonalEdgeStyle;html=1;verticalAlign=bottom;endArrow=open;endSize=8;strokeColor=#ff0000;rounded=0;" edge="1" parent="2" target="FRBaiip9Qxw7M4mhhmUO-51">
          <mxGeometry relative="1" as="geometry">
            <mxPoint x="115.5" y="252" as="targetPoint" />
            <mxPoint x="120.5" y="290" as="sourcePoint" />
          </mxGeometry>
        </mxCell>
        <mxCell id="FRBaiip9Qxw7M4mhhmUO-57" value="Search a Restaurant" style="ellipse;whiteSpace=wrap;html=1;" vertex="1" parent="2">
          <mxGeometry x="50.5" y="220" width="140" height="70" as="geometry" />
        </mxCell>
        <mxCell id="FRBaiip9Qxw7M4mhhmUO-64" value="Show Error" style="ellipse;whiteSpace=wrap;html=1;" vertex="1" parent="2">
          <mxGeometry x="55.5" y="502" width="140" height="70" as="geometry" />
        </mxCell>
        <mxCell id="3" value="Thread 2" style="swimlane;whiteSpace=wrap" parent="1" vertex="1">
          <mxGeometry x="444.5" y="128" width="280" height="662" as="geometry" />
        </mxCell>
        <mxCell id="4" value="Thread 3" style="swimlane;whiteSpace=wrap" parent="1" vertex="1">
          <mxGeometry x="724.5" y="128" width="280" height="662" as="geometry" />
        </mxCell>
        <mxCell id="38" value="" style="ellipse;shape=endState;fillColor=#000000;strokeColor=#ff0000" parent="4" vertex="1">
          <mxGeometry x="130" y="500" width="30" height="30" as="geometry" />
        </mxCell>
        <mxCell id="FRBaiip9Qxw7M4mhhmUO-62" value="" style="edgeStyle=orthogonalEdgeStyle;html=1;verticalAlign=bottom;endArrow=open;endSize=8;strokeColor=#ff0000;rounded=0;exitX=0.5;exitY=1;exitDx=0;exitDy=0;" edge="1" parent="1" source="FRBaiip9Qxw7M4mhhmUO-46">
          <mxGeometry relative="1" as="geometry">
            <mxPoint x="280" y="350" as="targetPoint" />
            <mxPoint x="295" y="428" as="sourcePoint" />
          </mxGeometry>
        </mxCell>
        <mxCell id="FRBaiip9Qxw7M4mhhmUO-63" value="No" style="edgeStyle=orthogonalEdgeStyle;html=1;verticalAlign=bottom;endArrow=open;endSize=8;strokeColor=#ff0000;rounded=0;exitX=0.507;exitY=0.978;exitDx=0;exitDy=0;exitPerimeter=0;" edge="1" parent="1" source="FRBaiip9Qxw7M4mhhmUO-51">
          <mxGeometry relative="1" as="geometry">
            <mxPoint x="286" y="630" as="targetPoint" />
            <mxPoint x="305" y="438" as="sourcePoint" />
          </mxGeometry>
        </mxCell>
      </root>
    </mxGraphModel>
  </diagram>
</mxfile>
